<svg width="185" height="315" viewBox="0 0 185 315" fill="none" xmlns="http://www.w3.org/2000/svg">
    <path d="M8.50004 314.5C7.33338 310 14.8001 285.4 24.0001 271C33.2001 256.6 48.3334 243.167 55.5001 239C51.0001 233.5 44.0001 227.5 44.0001 219.5C44.0001 211.5 47 203.333 48 201L20.5001 191.5C14.3334 202.5 4.50005 223 2.00011 239C-0.222861 253.227 2.33338 297.333 8.50004 314.5Z" fill="black"/>
    <path d="M57.5001 80.4999C58.1667 85.8333 43.5001 128.2 35.5001 139C27.5001 149.8 10.3334 166.5 2.00007 173L86.5001 204.167C82.3334 187.5 82.9168 153.5 90.0001 128C97.0835 102.5 132.5 42.3432 184 0.999924C160 16.4999 138.757 33.9999 118 57.9999C97.2434 81.9999 84 95 69.0001 134C62.0771 152 63.0001 174 63.5001 180L26.0001 167C30.5001 166.333 41.6001 149 46.0001 139C50.4001 129 59.3334 90.3333 57.5001 80.4999Z" fill="black"/>
    <path d="M8.50004 314.5C7.33338 310 14.8001 285.4 24.0001 271C33.2001 256.6 48.3334 243.167 55.5001 239C51.0001 233.5 44.0001 227.5 44.0001 219.5C44.0001 211.5 47 203.333 48 201L20.5001 191.5C14.3334 202.5 4.50005 223 2.00011 239C-0.222861 253.227 2.33338 297.333 8.50004 314.5Z" stroke="black"/>
    <path d="M57.5001 80.4999C58.1667 85.8333 43.5001 128.2 35.5001 139C27.5001 149.8 10.3334 166.5 2.00007 173L86.5001 204.167C82.3334 187.5 82.9168 153.5 90.0001 128C97.0835 102.5 132.5 42.3432 184 0.999924C160 16.4999 138.757 33.9999 118 57.9999C97.2434 81.9999 84 95 69.0001 134C62.0771 152 63.0001 174 63.5001 180L26.0001 167C30.5001 166.333 41.6001 149 46.0001 139C50.4001 129 59.3334 90.3333 57.5001 80.4999Z" stroke="black"/>
</svg>
